HIERARCHY
ROOT HipCenter
{
    OFFSET 0.0 0.0 -0.0
    CHANNELS 6 Xposition Yposition Zposition Zrotation Xrotation Yrotation
    JOINT Spine
    {
        OFFSET 0.0 0.12094064801931381 0.0
        CHANNELS 3 Zrotation Xrotation Yrotation
        JOINT ShoulderCenter
        {
            OFFSET 0.0 0.33486852049827576 0.0
            CHANNELS 3 Zrotation Xrotation Yrotation
            JOINT LeftShoulder
            {
                OFFSET 0.1904914677143097 0.0 0.0
                CHANNELS 3 Zrotation Xrotation Yrotation
                JOINT LeftElbow
                {
                    OFFSET 0.2975093722343445 0.0 0.0
                    CHANNELS 3 Zrotation Xrotation Yrotation
                    JOINT LeftWrist
                    {
                        OFFSET 0.2960464656352997 0.0 0.0
                        CHANNELS 3 Zrotation Xrotation Yrotation
                        JOINT LeftHand
                        {
                            OFFSET 0.04403996095061302 0.0 0.0
                            CHANNELS 3 Zrotation Xrotation Yrotation
                            End Site
                            {
                                OFFSET 0.01761598512530327 0.0 0.0
                            }
                        }
                    }
                }
            }
            JOINT RightShoulder
            {
                OFFSET -0.1904914677143097 0.0 0.0
                CHANNELS 3 Zrotation Xrotation Yrotation
                JOINT RightElbow
                {
                    OFFSET -0.2975093722343445 0.0 0.0
                    CHANNELS 3 Zrotation Xrotation Yrotation
                    JOINT RightWrist
                    {
                        OFFSET -0.2960464656352997 0.0 0.0
                        CHANNELS 3 Zrotation Xrotation Yrotation
                        JOINT RightHand
                        {
                            OFFSET -0.04403996095061302 0.0 0.0
                            CHANNELS 3 Zrotation Xrotation Yrotation
                            End Site
                            {
                                OFFSET -0.01761598512530327 0.0 0.0
                            }
                        }
                    }
                }
            }
            End Site
            {
                OFFSET 0.0 0.13394738733768463 0.0
            }
        }
    }
    JOINT LeftHip
    {
        OFFSET 0.13976800441741943 0.0 0.0
        CHANNELS 3 Zrotation Xrotation Yrotation
        JOINT LeftKnee
        {
            OFFSET 0.0 -0.40651530027389526 0.0
            CHANNELS 3 Zrotation Xrotation Yrotation
            JOINT LeftAnkle
            {
                OFFSET 0.0 -0.44772323966026306 0.0
                CHANNELS 3 Zrotation Xrotation Yrotation
                JOINT LeftFoot
                {
                    OFFSET 0.0 -0.10068432986736298 0.0
                    CHANNELS 3 Zrotation Xrotation Yrotation
                    End Site
                    {
                        OFFSET 0.0 0.0 0.04027373343706131
                    }
                }
            }
        }
    }
    JOINT RightHip
    {
        OFFSET -0.13976800441741943 0.0 0.0
        CHANNELS 3 Zrotation Xrotation Yrotation
        JOINT RightKnee
        {
            OFFSET 0.0 -0.40651530027389526 0.0
            CHANNELS 3 Zrotation Xrotation Yrotation
            JOINT RightAnkle
            {
                OFFSET 0.0 -0.44772323966026306 0.0
                CHANNELS 3 Zrotation Xrotation Yrotation
                JOINT RightFoot
                {
                    OFFSET 0.0 -0.10068432986736298 0.0
                    CHANNELS 3 Zrotation Xrotation Yrotation
                    End Site
                    {
                        OFFSET 0.0 0.0 0.04027373343706131
                    }
                }
            }
        }
    }
}
MOTION
Frames: 10
Frame Time: 0.03333333333333333
0.6240000128746033 -0.9039999842643738 -0.25099998712539673 1.6846627884856804 73.65726878050388 168.40323827679637 -6.151367982004721 18.212668315256213 4.725513796404892 -5.405710343204691e-07 6.253397212433993e-06 6.622478822518659 147.79093617365072 -22.083785445562476 -126.4815562439483 -2.2110700039020228e-06 -7.43505986467426e-07 33.51899726861889 4.883262898690899e-06 -28.227869194867424 32.88093062488382 -7.951386703658792e-16 0.0 0.0 -109.85274261220783 -4.7104993624372895 140.29113849458417 -8.050815069863394e-07 6.070442406427401e-06 -47.75568604006788 -179.99999526642486 -51.784324742047325 141.63249612779936 -3.1805546814635168e-15 -2.2069531490250793e-32 7.951386703658792e-16 152.54435589876908 -58.56740447913405 -148.89795417563045 32.6457847715963 24.761914959715355 -32.483586516777656 106.39768721643668 67.93100539966201 -157.33149353329566 -3.1805546814635168e-15 6.3611093629270335e-15 1.7655625192200634e-31 178.8918028012259 -58.557685765944605 115.17571526036615 -32.17388218594859 26.28593736792742 20.581048624739584 -104.3826613590394 44.99579225725472 149.16147117904234 3.1805546814635176e-15 6.361109362927035e-15 3.1805546814635176e-15
0.621999979019165 -0.8999999761581421 -0.27000001072883606 3.1220921379806263 62.977697099334556 170.98863517617474 -4.815996863236544 18.16301484942772 6.2937331924877 -3.574955765317574e-07 1.9920422370962386e-06 1.5380966964023497 148.00023118278833 -26.759154461340263 -128.88685481627016 1.169828645598387e-06 -4.154090193078428e-06 29.15827535542926 -6.683257552536383e-07 -31.252790982547975 33.08277944340024 -1.5902773407317582e-15 0.0 0.0 -107.46161053751607 -6.544847557013523 144.83455617714364 -3.969565591286315e-06 6.184139822389744e-07 -43.10245645383979 -179.99999657137582 -45.982591330665635 144.414709859291 0.0 0.0 1.7890620083232284e-15 157.37615598780164 -65.62237273959074 -152.91463413589977 27.368202296436664 27.544839458356144 -35.510924436065366 128.06532584594382 77.764320702663 -176.23145765120634 0.0 0.0 1.1927080055488186e-15 -172.47575309741023 -60.89112258005885 117.40812699065158 -29.45623223093169 19.352372758113734 16.63270477554765 -102.92765352692615 34.517221669904664 156.20147536864695 -3.1805546814635176e-15 -6.361109362927035e-15 -1.7655625192200634e-31
0.6179999709129333 -0.8949999809265137 -0.2879999876022339 1.4501979726404997 49.02862760300123 175.23303793553924 -4.580217988942606 16.08896122296969 4.8486527382268205 -1.595451801245891e-07 1.9873853499406592e-06 0.04278275359021954 145.6352522234607 -25.82253738745583 -131.96015985270722 2.437181659967905e-06 1.157509083759177e-06 28.494865036220215 1.308263601298979e-06 -29.874422514418757 30.323667371071778 -1.5902773407317582e-15 3.1805546814635168e-15 -6.3611093629270335e-15 -109.18272235094003 -8.369039725400166 147.64676134673164 -6.97878049128804e-07 5.61585658478129e-06 -40.837734057457894 -179.99999883457966 -47.67705053361937 144.88509979339412 -3.1805546814635168e-15 -6.069121159818968e-32 2.1866313435061676e-15 165.55531733952344 -64.51368934563773 -143.83417405700084 26.26235764293856 26.223257095951507 -32.277256480829514 121.25408102613345 73.96532901247114 -169.00009923712193 -1.5902773407317584e-15 3.1805546814635168e-15 5.963540027744094e-16 -172.29828553343646 -57.99254470060518 120.08455573882266 -28.914920357833683 19.467938345852392 17.1000476469428 -102.99879865217854 35.59672886975798 156.12736726980987 -1.3241718894150476e-31 3.1805546814635176e-15 4.770832022195277e-15
0.6169999837875366 -0.8809999823570251 -0.30000001192092896 1.7013322891372993 33.54732356584411 173.84808740488256 -3.8991698463285918 13.435821407828549 2.082759404562413 7.931886610827655e-08 -1.57113699846959e-06 3.748093017302605 144.7000556923826 -22.34295076725185 -131.81247373445092 -1.5323534776641084e-06 -1.944459863228871e-06 26.54890002149831 1.1790111112681018e-06 -25.149748525553747 30.166521475740424 -3.1805546814635168e-15 -3.1805546814635168e-15 -8.827812596100317e-32 -112.16780828410482 -8.9441489388499 146.8520211132237 8.698477647315067e-07 2.2897816276493706e-06 -37.842258928631615 -179.99999644090724 -49.05661114776436 145.30022448263082 3.975693351829397e-16 7.951386703658792e-16 -9.442271710594815e-15 165.10786672463956 -58.55370889357035 -137.34525776933023 31.623030978168188 23.096129376580755 -34.22933267649676 116.4693734849968 66.60913653630767 -170.16355710343223 0.0 0.0 -8.299259871943863e-15 179.1432610920019 -55.24813499915988 120.11213085095713 -31.00833997462 27.361946402684215 27.046141677661993 -111.42399774528717 51.5015744790248 158.0280399736405 7.951386703658792e-16 3.586298867165754e-32 5.168401357378215e-15
0.6179999709129333 -0.8619999885559082 -0.3190000057220459 2.511361653610508 19.317616620768078 174.1900056779081 -2.9781884259960134 10.980672404839204 1.2427697881520883 5.6500434353117834e-08 2.3323686910815384e-07 4.178385101571519 147.0504462887559 -18.84719281138061 -129.93663502005307 -6.030723963018694e-07 -5.100123638677052e-07 25.33601971655289 6.561191097999398e-06 -28.86177409170935 30.152644153774066 3.1805546814635168e-15 1.7655625192200634e-31 6.3611093629270335e-15 -115.83775307073344 -8.84976350821499 144.8255502525408 -8.896772528138798e-07 2.0368771839097734e-06 -35.19698868588514 179.99999894154226 -50.31841654950533 146.48177376141115 -3.975693351829396e-16 -7.951386703658791e-16 -9.144094709207609e-15 170.4895019843997 -45.85463131207949 -129.85924069911573 33.92390405319272 21.411578201846478 -28.928777948056222 109.66380069176724 40.75360467778223 -167.07683252908353 1.5902773407317584e-15 3.975693351829396e-16 1.5405811738338909e-15 179.93923012885415 -45.57582790844449 121.68152974771508 -34.3286614132492 31.063328811642727 31.474979797269725 -113.93458165700618 38.046421920441425 163.86423156161467 -3.975693351829397e-15 2.3854160110976384e-15 -1.1927080055488192e-15
0.6150000095367432 -0.8420000076293945 -0.3499999940395355 2.8864097575624603 7.648109405914311 176.07746590702453 -2.8096830273990356 9.872493473299018 1.4417603528364735 4.313493527193663e-07 -1.0774186793256907e-07 2.7597530369626186 149.8741742723343 -14.28426346899077 -126.24225201509446 -5.554579667047917e-07 2.491435399130836e-06 23.392629092337874 4.124313722097388e-06 -26.135633702633573 30.464888378814695 0.0 -3.1805546814635168e-15 0.0 -119.34532368180804 -7.495794383185011 139.73440773584002 2.5957985332180892e-06 1.5352770750370608e-06 -31.31037550638296 179.999996516392 -51.297268999156685 146.00970261097072 1.5902773407317584e-15 -1.0483027457869126e-31 -7.553817368475852e-15 174.08475199410287 -33.57461777716998 -126.13353215077561 28.356561318114665 19.23994049291542 -20.00637269956971 111.04925938488307 40.45706685551321 -163.5104596684492 0.0 0.0 2.683593012484842e-15 -175.52070852459164 -32.72933205956613 122.81852105998523 -28.242188753807213 25.529343274657826 20.54079942383401 -123.50644019223832 43.64097271327345 165.75948579154783 1.9878466759146975e-16 -3.975693351829395e-16 -1.2424041724466859e-15
0.6150000095367432 -0.8190000057220459 -0.37299999594688416 3.782653560514388 -2.8326194495587966 178.79530508346602 -1.7855533466205094 7.821892465596871 1.2540244762966184 -7.441046782691064e-07 1.2022017522566973e-06 0.5937399087223504 151.55558984954246 -9.743676857796853 -122.72091726636407 1.3246549147413238e-06 -5.349076901421795e-06 21.786521731638217 4.836483706050768e-06 -24.819743828064922 28.989250658296438 0.0 0.0 6.361109362927033e-15 -119.45714454632291 -4.247219032423212 134.5429203130872 -3.7236030896947033e-06 -6.72087468139265e-06 -28.299928383814972 179.9999970283063 -52.86377146470859 143.4922211493312 0.0 0.0 -8.34895603884173e-15 176.36634728491182 -26.07458469856523 -125.14497871862335 26.865991635954703 20.249101853776917 -17.83545023387302 111.74923419340122 46.200252908306155 -158.5605877066868 0.0 0.0 6.21202086223343e-16 -172.95713363452853 -23.79264820038324 122.2699708378231 -27.476595392316582 22.781291558546247 15.672368833574822 -118.46704327533367 38.9443965612968 160.94935691224313 0.0 0.0 -4.646591604950606e-15
0.6119999885559082 -0.7910000085830688 -0.3970000147819519 4.361573152400337 -10.062427614408316 177.8194473153107 -0.7818917011797266 7.689946543588378 0.8575385647305036 3.574325005991821e-07 8.316926573625293e-07 2.181594607756101 149.30068749144087 -4.501089788543486 -119.90343870218754 -4.390561420992315e-06 -1.461965661299285e-06 21.536795439347603 -7.092127853367502e-07 -25.905811753038154 25.094443737639647 6.361109362927032e-15 0.0 0.0 -118.67903446022076 -0.3408536241555 129.11552126402466 -3.7752319973167957e-07 1.0543145486456096e-06 -26.427332507475448 -179.99999780582291 -52.133506452934654 143.04274137673923 -1.5902773407317584e-15 3.310429723537619e-32 -2.3854160110976376e-15 175.3232846086431 -23.553415284940034 -124.54922681053735 26.559025052168778 19.11710810385177 -15.82383355843026 110.72011480962131 44.84641388391678 -156.9644789766391 7.951386703658792e-16 8.276074308844047e-33 1.1927080055488188e-15 -174.27182817659673 -21.736302879315453 122.06000893508623 -26.54003110925011 23.746230885292775 15.297877268067952 -114.5611230417897 42.309386290746176 155.18400967132064 0.0 0.0 -2.1617832600572342e-15
0.6079999804496765 -0.7599999904632568 -0.4269999861717224 4.398707427306369 -13.881552629878376 179.42846744955534 -0.6576009200767158 8.602444146879055 0.9823533236138208 -3.135314683183155e-07 9.864337002558434e-07 1.2912878304049054 146.2395440648559 -1.56103861676597 -116.36847514051341 -1.8530014050647713e-06 -1.2627196374531664e-06 20.861560048005085 -7.252311275698429e-07 -23.34766370853223 24.772280526278287 0.0 6.3611093629270335e-15 0.0 -115.7128118475821 2.9431762278358935 125.58022247002259 1.5283840043798763e-06 1.5985515791016534e-07 -25.735716224472235 -179.99999532932105 -52.75195038140418 141.61918626611646 3.1805546814635168e-15 6.620859447075238e-32 2.3854160110976376e-15 176.1797486495833 -25.297420474069785 -124.48194325012199 24.679270132067234 19.124265133668544 -14.660247087202464 109.85299688869001 52.65518186993013 -151.77819112602256 -1.5902773407317582e-15 1.5902773407317582e-15 -1.789062008323228e-15 -174.1022241466563 -22.684019307065675 122.04816825460594 -25.362444593273153 22.184589015305974 13.396452020600101 -105.348526618411 41.603547892936916 146.3731139192202 0.0 0.0 -1.5405811738338905e-15
0.6029999852180481 -0.722000002861023 -0.45100000500679016 4.474898043587101 -17.784074757336786 -179.38916345870658 -0.35985041444566623 8.316000574245617 0.884209620301143 -4.999595209029276e-08 2.9365278001920137e-06 1.3912593390471801 143.01976468920853 -0.7496741857407153 -113.2263686116831 8.339293450956234e-07 -2.9390758514508287e-06 21.245731393786937 -1.522535484727584e-06 -21.978887001498098 23.0518449827046 -6.3611093629270335e-15 -3.1805546814635168e-15 6.3611093629270335e-15 -113.3128866418945 5.297031775279568 124.74470723261845 -1.8554548019614115e-06 -5.727748915458865e-07 -27.8865451766043 179.99999800142604 -55.47202774561405 141.11803047372265 3.1805546814635176e-15 1.1034765745125397e-31 3.975693351829397e-15 177.53926330297182 -29.476158797909324 -124.96377750132332 24.818690795487946 20.3055271401934 -16.36156470502685 105.1684902442981 63.279727413437016 -145.5261037449672 -7.951386703658791e-16 -1.5902773407317582e-15 -1.1034765745125397e-32 -174.21749097640458 -26.02972471358244 121.91886414383522 -26.027135784313604 21.499875716119895 14.190407045926332 -94.64875840137452 43.576919708768315 137.07524215263533 4.310455369189608e-32 -1.5902773407317588e-15 3.1060104311167163e-15
